<?xml version="1.0" encoding="utf-8"?>
<!-- Generator: Adobe Illustrator 18.1.1, SVG Export Plug-In . SVG Version: 6.00 Build 0)  -->
<svg version="1.1" xmlns="http://www.w3.org/2000/svg" xmlns:xlink="http://www.w3.org/1999/xlink" x="0px" y="0px"
	 viewBox="16.7 116.7 250 50" enable-background="new 16.7 116.7 250 50" xml:space="preserve">
<g id="Layer_1">
	<g id="Layer_1_1_" display="none">
		
			<text transform="matrix(1.017 0 0 1 956.6804 372.5692)" display="inline" font-family="'HorsebackSlab-Bold'" font-size="239.9259">P</text>
		<text transform="matrix(0.9513 0 0 1 3215.4995 372.5696)" display="inline" font-family="'BigTenBlock'" font-size="1062.975">P</text>
		<rect x="1275.6" y="-884.9" display="inline" width="699.8" height="531.5"/>
		<rect x="3791.3" y="-707.8" display="inline" width="416.3" height="354.3"/>
	</g>
	<g id="Layer_3">
		<g id="XMLID_1_">
			<g>
				<path fill="#8DD5E1" d="M42.8,126.7c6.1,0,11.1,4.2,11.1,9.6c0,5.4-5,9.5-11.1,9.5h-2.7v4.7H44v6.2H26.8v-6.3h3.6v-15.5h-2.3
					v-8.2H42.8z M47.9,137.7v-3.6h-3.4v-3.4H41v3.4h-3.4v3.5H41v3.4h3.5v-3.4L47.9,137.7L47.9,137.7z"/>
			</g>
		</g>
		<polygon display="none" points="414.3,208.4 433.5,208.4 433.5,190.1 451.9,190.1 451.9,170.9 433.5,170.9 433.5,152.4 
			414.3,152.4 414.3,170.9 395.9,170.9 395.9,190.1 414.3,190.1 		"/>
	</g>
	<g id="Layer_4" display="none">
	</g>
	<g id="backup" display="none">
		<rect x="3671.7" y="1199.4" display="inline" width="830" height="303.8"/>
		<rect x="3844.4" y="58.5" display="inline" width="470.4" height="1442.1"/>
		<ellipse display="inline" cx="4446.8" cy="510.2" rx="535.9" ry="463.3"/>
		<rect x="3950.7" y="47.8" display="inline" width="496.1" height="380.9"/>
		<rect x="3897.6" y="725.5" display="inline" width="549.2" height="248"/>
		<rect x="3733.7" y="47.8" display="inline" width="217" height="398.6"/>
		<g id="XMLID_3_" display="inline">
			<g>
				<polygon fill="#FFFFFF" points="4694.8,411 4694.8,581.1 4531.8,581.1 4531.8,743.2 4361.7,743.2 4361.7,581.1 4198.8,581.1 
					4198.8,411 4361.7,411 4361.7,247.1 4531.8,247.1 4531.8,411 				"/>
			</g>
		</g>
	</g>
	<g id="Layer_2" display="none">
		
			<image display="inline" overflow="visible" enable-background="new    " width="600" height="600" xlink:href="EB4CAD6A.png"  transform="matrix(0.8268 0 0 0.8268 3825.2334 -3.8976)">
		</image>
		<path display="inline" d="M387.1-601.5c-56.7,0-56.7,88.6,0,88.6C443.8-512.9,443.8-601.5,387.1-601.5z"/>
		<path display="inline" d="M427.8-512.9c-56.7,0-56.7,88.6,0,88.6C485.4-424.3,485.4-512.9,427.8-512.9z"/>
	</g>
	<g id="Layer_6" display="none">
		<g id="Layer_5" display="inline">
			<path fill="#FFFFFF" d="M4347.6,683v221.5h220.6V1303H3562.7V904.4h242.7V9.7h-189.6v-398.6h863.7
				c295.9,0,535.9,240.1,535.9,535.9c0,293.2-234.7,531.5-527.1,535.9c-2.7,0-6.2,0-8.9,0H4347.6z"/>
			<g id="XMLID_2_">
				<g>
					<polygon fill="#FFFFFF" points="4736.4,62 4736.4,232.1 4573.4,232.1 4573.4,395.1 4403.4,395.1 4403.4,232.1 4240.4,232.1 
						4240.4,62 4403.4,62 4403.4,-101 4573.4,-101 4573.4,62 					"/>
				</g>
			</g>
		</g>
	</g>
	<text transform="matrix(1 0 0 1 68.9419 151.5801)" fill="#A9A9A9" font-family="'Raleway-ExtraLight'" font-size="27.5686">PATRONAŽA</text>
</g>
<g id="Layer_3_1_" display="none">
</g>
<g id="Layer_2_1_" display="none">
</g>
</svg>
